HIERARCHY
ROOT Hips
{
	OFFSET 0.000000 89.005402 0.000000
	CHANNELS 6 Xposition Yposition Zposition Xrotation Yrotation Zrotation
	JOINT Spine
	{
		OFFSET 0.116900 10.681000 0.373400
		CHANNELS 3 Xrotation Yrotation Zrotation
		JOINT Spine1
		{
			OFFSET 0.000000 13.840401 0.053500
			CHANNELS 3 Xrotation Yrotation Zrotation
			JOINT Spine2
			{
				OFFSET 0.000000 14.712700 -0.366200
				CHANNELS 3 Xrotation Yrotation Zrotation
				JOINT Neck
				{
					OFFSET 0.000000 35.415497 -3.314200
					CHANNELS 3 Xrotation Yrotation Zrotation
					JOINT Head
					{
						OFFSET 0.000000 16.899200 1.218300
						CHANNELS 3 Xrotation Yrotation Zrotation
						JOINT HeadTop_End
						{
							OFFSET 0.000000 22.206207 2.192500
							CHANNELS 3 Xrotation Yrotation Zrotation
							End Site
							{
								OFFSET 0.000000 22.314178 0.000000
							}
						}
					}
				}
				JOINT LeftShoulder
				{
					OFFSET 12.896400 26.716293 -4.548400
					CHANNELS 3 Xrotation Yrotation Zrotation
					JOINT LeftArm
					{
						OFFSET 19.027000 -4.857010 -1.718400
						CHANNELS 3 Xrotation Yrotation Zrotation
						JOINT LeftForeArm
						{
							OFFSET 24.179897 0.000000 0.000000
							CHANNELS 3 Xrotation Yrotation Zrotation
							JOINT LeftHand
							{
								OFFSET 27.156403 0.000000 0.000000
								CHANNELS 3 Xrotation Yrotation Zrotation
								JOINT LeftHandIndex1
								{
									OFFSET 16.441200 0.000000 0.000000
									CHANNELS 3 Xrotation Yrotation Zrotation
									JOINT LeftHandIndex2
									{
										OFFSET 4.821899 0.000000 0.000000
										CHANNELS 3 Xrotation Yrotation Zrotation
										JOINT LeftHandIndex3
										{
											OFFSET 6.386497 0.000000 0.000000
											CHANNELS 3 Xrotation Yrotation Zrotation
											JOINT LeftHandIndex4
											{
												OFFSET 5.188988 0.000000 0.000000
												CHANNELS 3 Xrotation Yrotation Zrotation
												End Site
												{
													OFFSET -0.178703 5.185913 0.000177
												}
											}
										}
									}
								}
								JOINT LeftHandThumb1
								{
									OFFSET 6.534897 -5.032593 5.900300
									CHANNELS 3 Xrotation Yrotation Zrotation
									JOINT LeftHandThumb2
									{
										OFFSET 3.818176 -2.204422 2.204423
										CHANNELS 3 Xrotation Yrotation Zrotation
										JOINT LeftHandThumb3
										{
											OFFSET 3.252098 -1.877594 1.877601
											CHANNELS 3 Xrotation Yrotation Zrotation
											JOINT LeftHandThumb4
											{
												OFFSET 5.251778 -3.032120 3.032117
												CHANNELS 3 Xrotation Yrotation Zrotation
												End Site
												{
													OFFSET 0.000023 6.780014 0.000000
												}
											}
										}
									}
								}
							}
						}
					}
				}
				JOINT RightShoulder
				{
					OFFSET -12.896300 26.716293 -4.548400
					CHANNELS 3 Xrotation Yrotation Zrotation
					JOINT RightArm
					{
						OFFSET -19.027000 -4.857010 -1.718400
						CHANNELS 3 Xrotation Yrotation Zrotation
						JOINT RightForeArm
						{
							OFFSET -24.179897 0.000000 0.000000
							CHANNELS 3 Xrotation Yrotation Zrotation
							JOINT RightHand
							{
								OFFSET -27.156403 0.000000 0.000000
								CHANNELS 3 Xrotation Yrotation Zrotation
								JOINT RightHandThumb1
								{
									OFFSET -6.591202 -4.852203 5.988100
									CHANNELS 3 Xrotation Yrotation Zrotation
									JOINT RightHandThumb2
									{
										OFFSET -3.818176 -2.204422 2.204423
										CHANNELS 3 Xrotation Yrotation Zrotation
										JOINT RightHandThumb3
										{
											OFFSET -3.252098 -1.877594 1.877601
											CHANNELS 3 Xrotation Yrotation Zrotation
											JOINT RightHandThumb4
											{
												OFFSET -5.251778 -3.032120 3.032117
												CHANNELS 3 Xrotation Yrotation Zrotation
												End Site
												{
													OFFSET -0.000023 6.780014 0.000000
												}
											}
										}
									}
								}
								JOINT RightHandIndex1
								{
									OFFSET -16.029404 0.000000 0.000000
									CHANNELS 3 Xrotation Yrotation Zrotation
									JOINT RightHandIndex2
									{
										OFFSET -5.213303 0.000000 0.000000
										CHANNELS 3 Xrotation Yrotation Zrotation
										JOINT RightHandIndex3
										{
											OFFSET -6.386528 0.000000 0.000000
											CHANNELS 3 Xrotation Yrotation Zrotation
											JOINT RightHandIndex4
											{
												OFFSET -5.189026 0.000000 0.000000
												CHANNELS 3 Xrotation Yrotation Zrotation
												End Site
												{
													OFFSET 0.236702 5.183624 0.001972
												}
											}
										}
									}
								}
							}
						}
					}
				}
			}
		}
	}
	JOINT LeftUpLeg
	{
		OFFSET 14.073000 -7.904099 -1.463000
		CHANNELS 3 Xrotation Yrotation Zrotation
		JOINT LeftLeg
		{
			OFFSET -0.109806 -34.073280 4.093200
			CHANNELS 3 Xrotation Yrotation Zrotation
			JOINT LeftFoot
			{
				OFFSET 0.109806 -29.899420 -6.319000
				CHANNELS 3 Xrotation Yrotation Zrotation
				JOINT LeftToeBase
				{
					OFFSET 1.551100 -14.988700 20.535801
					CHANNELS 3 Xrotation Yrotation Zrotation
					JOINT LeftToe_End
					{
						OFFSET 0.221200 0.570800 13.248301
						CHANNELS 3 Xrotation Yrotation Zrotation
						End Site
						{
							OFFSET 0.000000 13.262435 0.000000
						}
					}
				}
			}
		}
	}
	JOINT RightUpLeg
	{
		OFFSET -13.839300 -7.904099 -1.463000
		CHANNELS 3 Xrotation Yrotation Zrotation
		JOINT RightLeg
		{
			OFFSET 0.109694 -34.073219 4.093300
			CHANNELS 3 Xrotation Yrotation Zrotation
			JOINT RightFoot
			{
				OFFSET -0.109694 -29.899384 -6.319200
				CHANNELS 3 Xrotation Yrotation Zrotation
				JOINT RightToeBase
				{
					OFFSET -1.551100 -14.988700 20.535801
					CHANNELS 3 Xrotation Yrotation Zrotation
					JOINT RightToe_End
					{
						OFFSET -0.221200 0.570900 13.248299
						CHANNELS 3 Xrotation Yrotation Zrotation
						End Site
						{
							OFFSET 0.000000 13.262440 0.000000
						}
					}
				}
			}
		}
	}
}
MOTION
Frames: 4
Frame Time: 0.033333
-3.066158 76.594398 0.085736 -7.069231 57.815475 3.896039 0.748728 -0.875864 0.539355 2.111943 -1.400191 1.498564 2.160516 -1.387740 1.433283 6.903420 -8.241577 5.919235 -1.026140 -36.689474 -0.600228 0.000000 0.000001 -0.000000 0.537635 -0.340788 -8.462489 29.446042 -28.962539 -38.348825 0.000010 -54.317247 0.000019 4.804153 -9.690780 -26.204343 7.416718 6.860427 -94.474227 8.602599 6.663407 -104.520302 2.651917 5.433015 -52.009251 0.000003 0.000000 -0.000001 -3.995078 24.990368 -19.240653 60.097202 77.419901 -26.297309 14.359248 37.958042 3.080535 0.000001 -0.000001 -0.000003 -0.370751 -9.251389 5.559162 -61.433023 -24.121148 -0.791366 0.000042 127.251738 -0.000048 -68.447682 -9.082342 4.452550 17.569755 -8.831180 28.061742 68.007210 -96.575241 53.443307 -1.835660 -41.861348 -10.266491 0.000002 -0.000001 -0.000001 8.997099 -6.640700 107.189758 7.442403 -6.930727 94.088403 2.199693 -5.078231 46.818563 -0.000000 -0.000002 0.000001 -21.117717 12.220327 36.298282 41.478021 -8.566734 -0.685487 -16.767064 4.437092 -22.681600 4.231134 0.000630 -0.124027 -0.000000 -0.000000 0.000000 -15.308517 -17.957641 -29.974248 37.920746 10.119173 0.516401 -16.258739 -10.621765 21.637751 -1.229188 0.000015 0.000006 -0.000000 0.000000 0.000000 
-2.107138 76.733223 -1.009528 -9.291337 53.458753 4.856595 0.718447 -0.942945 -0.054589 2.042889 -1.535581 0.922704 2.072815 -1.527622 0.856608 6.727633 -7.607190 5.899714 -0.765656 -33.298210 -0.476275 0.000000 0.000000 0.000000 0.539106 -0.521998 -8.466745 28.233839 -26.270280 -38.162999 0.000005 -53.249340 0.000015 7.799700 -10.116997 -33.061568 7.416721 6.860427 -94.474227 8.602597 6.663406 -104.520302 2.651910 5.433013 -52.009254 0.000001 -0.000002 -0.000000 -3.995083 24.990366 -19.240655 60.097195 77.419907 -26.297313 14.359242 37.958045 3.080535 -0.000001 -0.000001 -0.000001 -0.290265 -8.570555 5.929136 -67.483075 -22.877179 -2.231341 0.000012 129.487054 0.000002 -68.574143 -8.982494 4.894581 17.569753 -8.831179 28.061742 68.007190 -96.575241 53.443293 -1.835653 -41.861341 -10.266491 0.000001 -0.000000 0.000001 8.997102 -6.640698 107.189758 7.442400 -6.930725 94.088410 2.199687 -5.078234 46.818563 -0.000001 -0.000000 -0.000000 -17.107775 14.526298 36.134716 42.970755 -5.572445 -0.580732 -20.448343 4.904936 -21.783083 4.792050 0.000960 -0.285695 0.000001 -0.000000 -0.000000 -14.853267 -16.932189 -30.393625 35.224802 10.846195 0.590876 -13.399265 -7.612703 22.447027 -1.043857 0.000006 0.000003 -0.000000 -0.000001 0.000000 
-1.170569 76.509399 -2.245091 -12.127056 50.214762 5.634443 0.648584 -1.027970 -0.615674 1.943202 -1.767802 0.529707 1.960145 -1.763902 0.464242 7.114602 -7.113318 6.223506 0.483559 -30.379643 -0.526071 -0.000000 -0.000000 0.000000 0.579022 -1.309277 -8.617921 24.954725 -23.656843 -39.435217 -0.000027 -51.141537 -0.000064 12.982962 -11.131847 -37.716301 7.416723 6.860429 -94.474227 8.602593 6.663410 -104.520302 2.651916 5.433014 -52.009247 -0.000002 -0.000002 0.000001 -3.995078 24.990368 -19.240653 60.097209 77.419901 -26.297316 14.359252 37.958045 3.080540 0.000000 0.000001 0.000001 -0.147390 -7.309410 5.819146 -73.147747 -21.445074 -3.316076 0.000007 129.605695 -0.000005 -68.641960 -8.898668 5.252898 17.569752 -8.831181 28.061743 68.007210 -96.575241 53.443304 -1.835659 -41.861348 -10.266491 -0.000000 -0.000002 -0.000001 8.997099 -6.640701 107.189758 7.442401 -6.930725 94.088403 2.199690 -5.078232 46.818556 -0.000001 0.000000 -0.000000 -14.619386 16.380670 36.978286 45.835808 -4.403574 -0.541466 -24.119964 5.180568 -20.292709 4.741995 0.002162 -0.436279 -0.000000 0.000000 0.000000 -13.262914 -16.155945 -30.193285 32.766057 10.650323 0.621034 -11.002987 -4.695058 23.743708 -1.017234 -0.000001 0.000013 0.000000 -0.000003 -0.000000 
-0.297602 76.241425 -3.384493 -12.415546 48.688170 5.071984 0.493347 -1.168497 -1.119575 1.675486 -2.137733 0.237724 1.679322 -2.138096 0.182544 7.563458 -6.870159 6.690625 1.364290 -28.537377 -0.937897 0.000001 -0.000000 0.000000 0.642236 -2.486825 -8.830405 20.629123 -21.499699 -41.283890 -0.000025 -48.426383 -0.000042 18.709813 -12.326261 -39.803805 7.416721 6.860425 -94.474234 8.602597 6.663407 -104.520302 2.651912 5.433015 -52.009251 0.000001 -0.000001 -0.000002 -3.995078 24.990366 -19.240658 60.097209 77.419901 -26.297309 14.359250 37.958049 3.080535 0.000002 -0.000000 0.000001 -0.021714 -6.310994 5.601140 -78.642791 -20.703465 -5.425945 0.000028 130.752456 -0.000015 -68.705132 -8.890984 5.346497 17.569750 -8.831181 28.061745 68.007203 -96.575241 53.443331 -1.835654 -41.861341 -10.266492 -0.000001 0.000001 0.000001 8.997102 -6.640698 107.189758 7.442399 -6.930724 94.088410 2.199690 -5.078231 46.818563 -0.000000 0.000000 -0.000000 -14.124484 17.012301 36.858870 48.140700 -3.988322 -0.518406 -26.916930 5.445518 -19.353705 4.916260 0.001026 -0.301912 0.000000 0.000000 -0.000000 -13.126468 -15.746801 -30.525833 30.696639 10.622410 0.634160 -9.067164 -3.229335 24.992045 -1.078898 -0.000007 -0.000007 0.000000 0.000001 0.000000 
